<svg width="19" height="19" viewBox="0 0 19 19" fill="none" xmlns="http://www.w3.org/2000/svg">
<path fill-rule="evenodd" clip-rule="evenodd" d="M14.1742 3.19704C13.7257 3.19704 13.3214 3.46719 13.1498 3.88152C12.9781 4.29585 13.073 4.77277 13.3901 5.08988C13.7072 5.40699 14.1842 5.50186 14.5985 5.33024C15.0128 5.15862 15.283 4.75431 15.283 4.30584C15.283 3.69347 14.7865 3.19704 14.1742 3.19704ZM18.4246 5.43312C18.4066 4.66648 18.263 3.90797 17.9995 3.1878C17.7646 2.57161 17.3989 2.01365 16.9277 1.55232C16.4701 1.0787 15.9109 0.715339 15.2922 0.48972C14.5739 0.218213 13.8146 0.0713421 13.0469 0.05544C12.0674 0 11.7533 0 9.24 0C6.72672 0 6.41256 0 5.43312 0.05544C4.66542 0.0713421 3.90606 0.218213 3.1878 0.48972C2.57027 0.717623 2.01149 1.08067 1.55232 1.55232C1.0787 2.00986 0.715339 2.56913 0.48972 3.1878C0.218213 3.90606 0.0713421 4.66542 0.05544 5.43312C0 6.41256 0 6.72672 0 9.24C0 11.7533 0 12.0674 0.05544 13.0469C0.0713421 13.8146 0.218213 14.5739 0.48972 15.2922C0.715339 15.9109 1.0787 16.4701 1.55232 16.9277C2.01149 17.3993 2.57027 17.7624 3.1878 17.9903C3.90606 18.2618 4.66542 18.4087 5.43312 18.4246C6.41256 18.48 6.72672 18.48 9.24 18.48C11.7533 18.48 12.0674 18.48 13.0469 18.4246C13.8146 18.4087 14.5739 18.2618 15.2922 17.9903C15.9109 17.7647 16.4701 17.4013 16.9277 16.9277C17.401 16.4681 17.767 15.9096 17.9995 15.2922C18.263 14.572 18.4066 13.8135 18.4246 13.0469C18.4246 12.0674 18.48 11.7533 18.48 9.24C18.48 6.72672 18.48 6.41256 18.4246 5.43312ZM16.7614 12.936C16.7546 13.5225 16.6484 14.1037 16.4472 14.6546C16.2997 15.0568 16.0627 15.4201 15.7542 15.7172C15.4545 16.0226 15.0919 16.2591 14.6916 16.4102C14.1406 16.6114 13.5595 16.7177 12.973 16.7244C12.049 16.7706 11.7071 16.7798 9.27696 16.7798C6.84684 16.7798 6.50496 16.7798 5.58096 16.7244C4.97194 16.7358 4.36552 16.642 3.7884 16.4472C3.40566 16.2883 3.05969 16.0525 2.772 15.7542C2.46531 15.4574 2.23131 15.0937 2.08824 14.6916C1.86265 14.1327 1.73753 13.5384 1.71864 12.936C1.71864 12.012 1.6632 11.6701 1.6632 9.24C1.6632 6.80988 1.6632 6.468 1.71864 5.544C1.72278 4.94438 1.83224 4.35014 2.04204 3.7884C2.20471 3.39839 2.45439 3.05073 2.772 2.772C3.05272 2.4543 3.39966 2.20198 3.7884 2.0328C4.35162 1.82956 4.94524 1.72333 5.544 1.71864C6.468 1.71864 6.80988 1.6632 9.24 1.6632C11.6701 1.6632 12.012 1.6632 12.936 1.71864C13.5225 1.72537 14.1037 1.8316 14.6546 2.0328C15.0745 2.18863 15.4514 2.44199 15.7542 2.772C16.057 3.05583 16.2936 3.40284 16.4472 3.7884C16.6526 4.35105 16.7589 4.94504 16.7614 5.544C16.8076 6.468 16.8168 6.80988 16.8168 9.24C16.8168 11.6701 16.8076 12.012 16.7614 12.936ZM9.24 4.49988C6.62331 4.50498 4.50572 6.62946 4.50912 9.24615C4.51252 11.8628 6.63562 13.9818 9.25231 13.9801C11.869 13.9784 13.9894 11.8567 13.9894 9.24C13.9918 7.98048 13.4919 6.77198 12.6005 5.88223C11.709 4.99249 10.4995 4.49496 9.24 4.49988ZM9.24 12.3169C7.54066 12.3169 6.16308 10.9393 6.16308 9.24C6.16308 7.54066 7.54066 6.16308 9.24 6.16308C10.9393 6.16308 12.3169 7.54066 12.3169 9.24C12.3169 10.0561 11.9927 10.8387 11.4157 11.4157C10.8387 11.9927 10.056 12.3169 9.24 12.3169Z" fill="#191F2C"/>
</svg>
