<svg width="22" height="18" viewBox="0 0 22 18" fill="none" xmlns="http://www.w3.org/2000/svg">
<path fill-rule="evenodd" clip-rule="evenodd" d="M21.9948 2.15666C21.1682 2.51718 20.294 2.7555 19.3994 2.86422C20.3432 2.29742 21.0504 1.40575 21.3899 0.354604C20.503 0.885342 19.5322 1.25928 18.5196 1.46016C17.1275 -0.0574562 14.8913 -0.437795 13.0801 0.53502C11.2689 1.50783 10.3403 3.58804 10.8214 5.59495C7.19489 5.41055 3.81689 3.68649 1.52864 0.852105C1.13178 1.54879 0.923252 2.33778 0.923781 3.14061C0.920923 4.6549 1.67228 6.07011 2.92531 6.91056C2.20825 6.89095 1.50652 6.69752 0.879791 6.34673V6.40201C0.890871 8.55561 2.4078 10.404 4.50893 10.8242C4.1166 10.9443 3.70928 11.0075 3.29922 11.0122C3.01536 11.0088 2.73222 10.983 2.45242 10.9348C3.04735 12.7768 4.73829 14.0373 6.66442 14.0746C5.07772 15.3297 3.11873 16.0147 1.09974 16.0204C0.732135 16.0216 0.364823 15.9994 0 15.954C2.06138 17.292 4.46364 18.0023 6.91736 17.9993C10.3378 18.035 13.629 16.6871 16.0509 14.2586C18.4728 11.8302 19.8221 8.52505 19.7953 5.08639C19.7953 4.89845 19.7953 4.69945 19.7953 4.50045C20.6583 3.85349 21.4025 3.06037 21.9948 2.15666Z" fill="#191F2C"/>
</svg>
